<svg width="40" height="40" viewBox="0 0 40 40" fill="none" xmlns="http://www.w3.org/2000/svg">
<g filter="url(#filter0_d_3_399)">
<circle cx="20" cy="16" r="16" fill="#F5F5F5"/>
<path d="M27.7143 17.2857H21.2857V23.7143C21.2857 24.0553 21.1503 24.3823 20.9091 24.6234C20.668 24.8645 20.341 25 20 25C19.659 25 19.332 24.8645 19.0909 24.6234C18.8497 24.3823 18.7143 24.0553 18.7143 23.7143V17.2857H12.2857C11.9447 17.2857 11.6177 17.1503 11.3766 16.9091C11.1355 16.668 11 16.341 11 16C11 15.659 11.1355 15.332 11.3766 15.0909C11.6177 14.8497 11.9447 14.7143 12.2857 14.7143H18.7143V8.28571C18.7143 7.94472 18.8497 7.61769 19.0909 7.37658C19.332 7.13546 19.659 7 20 7C20.341 7 20.668 7.13546 20.9091 7.37658C21.1503 7.61769 21.2857 7.94472 21.2857 8.28571V14.7143H27.7143C28.0553 14.7143 28.3823 14.8497 28.6234 15.0909C28.8645 15.332 29 15.659 29 16C29 16.341 28.8645 16.668 28.6234 16.9091C28.3823 17.1503 28.0553 17.2857 27.7143 17.2857Z" fill="#84B59D"/>
</g>
<defs>
<filter id="filter0_d_3_399" x="0" y="0" width="40" height="40" filterUnits="userSpaceOnUse" color-interpolation-filters="sRGB">
<feFlood flood-opacity="0" result="BackgroundImageFix"/>
<feColorMatrix in="SourceAlpha" type="matrix" values="0 0 0 0 0 0 0 0 0 0 0 0 0 0 0 0 0 0 127 0" result="hardAlpha"/>
<feOffset dy="4"/>
<feGaussianBlur stdDeviation="2"/>
<feComposite in2="hardAlpha" operator="out"/>
<feColorMatrix type="matrix" values="0 0 0 0 0 0 0 0 0 0 0 0 0 0 0 0 0 0 0.25 0"/>
<feBlend mode="normal" in2="BackgroundImageFix" result="effect1_dropShadow_3_399"/>
<feBlend mode="normal" in="SourceGraphic" in2="effect1_dropShadow_3_399" result="shape"/>
</filter>
</defs>
</svg>
