<svg width="18" height="18" viewBox="0 0 18 18" fill="none" xmlns="http://www.w3.org/2000/svg">
<path d="M8.2161 0L9.9927 0.0045C10.6929 0.0891 11.3067 0.4185 11.8125 0.9747C12.2256 1.4283 12.4425 1.9557 12.4551 2.5299H17.3826C17.5471 2.53085 17.7046 2.59707 17.8203 2.71401C17.9361 2.83095 18.0007 2.98906 18 3.1536C18.0004 3.23503 17.9847 3.31574 17.9538 3.39111C17.923 3.46648 17.8776 3.53504 17.8203 3.59287C17.763 3.6507 17.6948 3.69668 17.6197 3.72817C17.5446 3.75966 17.464 3.77605 17.3826 3.7764L15.7302 3.7755V14.2398C15.7302 16.5285 14.8761 18 12.9933 18H4.8771C2.9943 18 2.1537 16.5366 2.1537 14.2398V3.7755H0.617401C0.453252 3.77479 0.296084 3.70901 0.18035 3.59261C0.0646166 3.4762 -0.000239137 3.31865 6.62618e-07 3.1545C6.62618e-07 2.8098 0.276301 2.5317 0.617401 2.5317H5.5404C5.553 2.0691 5.7249 1.6002 6.039 1.1367C6.507 0.4455 7.2378 0.0666 8.2161 0ZM14.4954 3.7755H3.3876V14.2398C3.3876 15.939 3.8556 16.7544 4.8771 16.7544H12.9933C14.0184 16.7544 14.4963 15.9318 14.4963 14.2398L14.4954 3.7755ZM6.0444 5.706C6.3846 5.706 6.6609 5.985 6.6609 6.3288V13.5738C6.66126 13.6552 6.64557 13.7359 6.61473 13.8113C6.5839 13.8867 6.53852 13.9552 6.48119 14.0131C6.42386 14.0709 6.3557 14.1169 6.2806 14.1484C6.2055 14.1799 6.12493 14.1962 6.0435 14.1966C5.8792 14.1956 5.72199 14.1295 5.6064 14.0128C5.4908 13.896 5.42628 13.7381 5.427 13.5738V6.3288C5.427 5.985 5.7042 5.706 6.0444 5.706ZM8.4978 5.706C8.8398 5.706 9.1152 5.985 9.1152 6.3288V13.5738C9.11556 13.6552 9.09987 13.7359 9.06903 13.8113C9.0382 13.8867 8.99282 13.9552 8.93549 14.0131C8.87816 14.0709 8.81 14.1169 8.7349 14.1484C8.6598 14.1799 8.57923 14.1962 8.4978 14.1966C8.3335 14.1956 8.17629 14.1295 8.06069 14.0128C7.9451 13.896 7.88058 13.7381 7.8813 13.5738V6.3288C7.8813 5.985 8.1576 5.706 8.4978 5.706ZM10.953 5.706C11.2932 5.706 11.5695 5.985 11.5695 6.3288V13.5738C11.5702 13.7381 11.5057 13.896 11.3901 14.0128C11.2745 14.1295 11.1173 14.1956 10.953 14.1966C10.8716 14.1962 10.791 14.1799 10.7159 14.1484C10.6408 14.1169 10.5726 14.0709 10.5153 14.0131C10.458 13.9552 10.4126 13.8867 10.3818 13.8113C10.3509 13.7359 10.3352 13.6552 10.3356 13.5738V6.3288C10.3351 6.16441 10.3998 6.00654 10.5156 5.88979C10.6313 5.77305 10.7886 5.70695 10.953 5.706ZM8.2584 1.2438C7.6806 1.2843 7.2999 1.4814 7.0578 1.8396C6.8796 2.1015 6.7905 2.3283 6.7761 2.5308L11.2203 2.5299C11.2077 2.268 11.1042 2.0376 10.9035 1.8171C10.5921 1.4751 10.2465 1.2897 9.9198 1.2456L8.2584 1.2438Z" fill="#84B59D"/>
</svg>
