<svg width="32" height="32" viewBox="0 0 32 32" fill="none" xmlns="http://www.w3.org/2000/svg">
<circle cx="16" cy="16" r="16" fill="#F5F5F5"/>
<g clip-path="url(#clip0_3_421)">
<path d="M15.2161 7L16.9927 7.0045C17.6929 7.0891 18.3067 7.4185 18.8125 7.9747C19.2256 8.4283 19.4425 8.9557 19.4551 9.5299H24.3826C24.5471 9.53085 24.7046 9.59707 24.8203 9.71401C24.9361 9.83095 25.0007 9.98906 25 10.1536C25.0004 10.235 24.9847 10.3157 24.9538 10.3911C24.923 10.4665 24.8776 10.535 24.8203 10.5929C24.763 10.6507 24.6948 10.6967 24.6197 10.7282C24.5446 10.7597 24.464 10.776 24.3826 10.7764L22.7302 10.7755V21.2398C22.7302 23.5285 21.8761 25 19.9933 25H11.8771C9.9943 25 9.1537 23.5366 9.1537 21.2398V10.7755H7.6174C7.45325 10.7748 7.29608 10.709 7.18035 10.5926C7.06462 10.4762 6.99976 10.3186 7 10.1545C7 9.8098 7.2763 9.5317 7.6174 9.5317H12.5404C12.553 9.0691 12.7249 8.6002 13.039 8.1367C13.507 7.4455 14.2378 7.0666 15.2161 7ZM21.4954 10.7755H10.3876V21.2398C10.3876 22.939 10.8556 23.7544 11.8771 23.7544H19.9933C21.0184 23.7544 21.4963 22.9318 21.4963 21.2398L21.4954 10.7755ZM13.0444 12.706C13.3846 12.706 13.6609 12.985 13.6609 13.3288V20.5738C13.6613 20.6552 13.6456 20.7359 13.6147 20.8113C13.5839 20.8867 13.5385 20.9552 13.4812 21.0131C13.4239 21.0709 13.3557 21.1169 13.2806 21.1484C13.2055 21.1799 13.1249 21.1962 13.0435 21.1966C12.8792 21.1956 12.722 21.1295 12.6064 21.0128C12.4908 20.896 12.4263 20.7381 12.427 20.5738V13.3288C12.427 12.985 12.7042 12.706 13.0444 12.706ZM15.4978 12.706C15.8398 12.706 16.1152 12.985 16.1152 13.3288V20.5738C16.1156 20.6552 16.0999 20.7359 16.069 20.8113C16.0382 20.8867 15.9928 20.9552 15.9355 21.0131C15.8782 21.0709 15.81 21.1169 15.7349 21.1484C15.6598 21.1799 15.5792 21.1962 15.4978 21.1966C15.3335 21.1956 15.1763 21.1295 15.0607 21.0128C14.9451 20.896 14.8806 20.7381 14.8813 20.5738V13.3288C14.8813 12.985 15.1576 12.706 15.4978 12.706ZM17.953 12.706C18.2932 12.706 18.5695 12.985 18.5695 13.3288V20.5738C18.5702 20.7381 18.5057 20.896 18.3901 21.0128C18.2745 21.1295 18.1173 21.1956 17.953 21.1966C17.8716 21.1962 17.791 21.1799 17.7159 21.1484C17.6408 21.1169 17.5726 21.0709 17.5153 21.0131C17.458 20.9552 17.4126 20.8867 17.3818 20.8113C17.3509 20.7359 17.3352 20.6552 17.3356 20.5738V13.3288C17.3351 13.1644 17.3998 13.0065 17.5156 12.8898C17.6313 12.773 17.7886 12.707 17.953 12.706ZM15.2584 8.2438C14.6806 8.2843 14.2999 8.4814 14.0578 8.8396C13.8796 9.1015 13.7905 9.3283 13.7761 9.5308L18.2203 9.5299C18.2077 9.268 18.1042 9.0376 17.9035 8.8171C17.5921 8.4751 17.2465 8.2897 16.9198 8.2456L15.2584 8.2438Z" fill="#84B59D"/>
</g>
<defs>
<clipPath id="clip0_3_421">
<rect width="18" height="18" fill="white" transform="translate(7 7)"/>
</clipPath>
</defs>
</svg>
