<svg width="25" height="25" viewBox="0 0 25 25" fill="none" xmlns="http://www.w3.org/2000/svg">
<path d="M16 14.5H15.21L14.93 14.23C15.555 13.5039 16.0117 12.6487 16.2676 11.7256C16.5234 10.8024 16.5721 9.83413 16.41 8.88998C15.94 6.10998 13.62 3.88997 10.82 3.54997C9.83562 3.42544 8.83579 3.52775 7.89703 3.84906C6.95827 4.17038 6.10545 4.70219 5.40384 5.40381C4.70222 6.10542 4.17041 6.95824 3.84909 7.897C3.52778 8.83576 3.42547 9.83559 3.55001 10.82C3.89001 13.62 6.11001 15.94 8.89001 16.41C9.83416 16.572 10.8025 16.5234 11.7256 16.2675C12.6488 16.0117 13.504 15.5549 14.23 14.93L14.5 15.21V16L18.75 20.25C19.16 20.66 19.83 20.66 20.24 20.25C20.65 19.84 20.65 19.17 20.24 18.76L16 14.5ZM10 14.5C7.51001 14.5 5.50001 12.49 5.50001 9.99997C5.50001 7.50997 7.51001 5.49997 10 5.49997C12.49 5.49997 14.5 7.50997 14.5 9.99997C14.5 12.49 12.49 14.5 10 14.5Z" fill="#AFB4B5"/>
</svg>
