<svg width="129" height="44" viewBox="0 0 129 44" fill="none" xmlns="http://www.w3.org/2000/svg">
<path d="M2.988 8.064C2.028 8.064 1.284 7.8 0.756001 7.272C0.252 6.72 0 6.06 0 5.292C0 5.1 0.0240004 4.872 0.0720005 4.608C0.144001 4.344 0.228001 4.116 0.324 3.924C0.636 4.068 1.092 4.176 1.692 4.248C2.316 4.296 3.036 4.32 3.852 4.32C5.076 4.32 6.456 4.272 7.992 4.176C9.552 4.056 11.04 3.936 12.456 3.816C13.872 3.696 15.12 3.588 16.2 3.492C17.28 3.372 17.976 3.312 18.288 3.312C19.176 3.312 19.812 3.648 20.196 4.32C20.604 4.968 20.904 5.844 21.096 6.948C20.472 6.9 19.848 6.864 19.224 6.84C18.624 6.792 18.108 6.768 17.676 6.768C16.908 6.768 16.128 6.792 15.336 6.84C14.568 6.888 13.788 6.96 12.996 7.056C12.66 7.752 12.288 8.58 11.88 9.54C11.472 10.476 11.064 11.46 10.656 12.492C10.272 13.524 9.9 14.556 9.54 15.588C9.18 16.596 8.868 17.508 8.604 18.324C8.076 19.908 7.608 21.372 7.2 22.716C6.816 24.06 6.468 25.32 6.156 26.496C5.868 27.648 5.616 28.752 5.4 29.808C5.184 30.864 4.992 31.896 4.824 32.904C3.216 32.664 1.872 31.656 0.792 29.88C0.984 29.136 1.212 28.332 1.476 27.468C1.764 26.58 2.088 25.584 2.448 24.48C2.832 23.352 3.276 22.08 3.78 20.664C4.284 19.248 4.86 17.64 5.508 15.84C5.748 15.168 6 14.472 6.264 13.752C6.528 13.008 6.78 12.276 7.02 11.556C7.284 10.836 7.512 10.14 7.704 9.468C7.92 8.796 8.1 8.184 8.244 7.632C7.236 7.752 6.276 7.86 5.364 7.956C4.476 8.028 3.684 8.064 2.988 8.064Z" fill="#40E0D0"/>
<path d="M12.5004 29.16C12.6204 28.464 12.8244 27.552 13.1124 26.424C13.4244 25.272 13.7844 24.06 14.1924 22.788C14.6004 21.492 15.0324 20.196 15.4884 18.9C15.9444 17.604 16.3884 16.44 16.8204 15.408C17.1324 14.664 17.4084 14.088 17.6484 13.68C17.8884 13.248 18.1524 12.888 18.4404 12.6C18.7764 12.648 19.1244 12.732 19.4844 12.852C19.8444 12.972 20.1924 13.116 20.5284 13.284C20.8644 13.452 21.1644 13.632 21.4284 13.824C21.6924 13.992 21.8964 14.16 22.0404 14.328C21.3924 15.096 20.8164 15.972 20.3124 16.956C19.8324 17.94 19.3404 19.2 18.8364 20.736C20.1324 19.584 21.2724 18.48 22.2564 17.424C23.2644 16.368 24.2004 15.192 25.0644 13.896C25.2084 13.776 25.4604 13.716 25.8204 13.716C26.1564 13.716 26.4804 13.776 26.7924 13.896C27.1044 13.992 27.3204 14.136 27.4404 14.328C27.0084 15.48 26.7924 16.62 26.7924 17.748C26.7924 18.804 26.9484 19.596 27.2604 20.124C27.2364 20.268 27.0684 20.544 26.7564 20.952C26.4684 21.36 26.1444 21.744 25.7844 22.104C25.1364 21.768 24.5604 21.312 24.0564 20.736C23.5524 20.136 23.1804 19.488 22.9404 18.792C21.8124 19.584 20.8524 20.364 20.0604 21.132C19.2684 21.876 18.5844 22.716 18.0084 23.652C17.4564 24.564 16.9764 25.62 16.5684 26.82C16.1844 28.02 15.8124 29.448 15.4524 31.104C15.2364 31.08 14.9724 30.996 14.6604 30.852C14.3724 30.732 14.0724 30.576 13.7604 30.384C13.4724 30.192 13.2084 29.988 12.9684 29.772C12.7284 29.556 12.5724 29.352 12.5004 29.16Z" fill="#40E0D0"/>
<path d="M27.92 27.468C27.92 27.252 27.932 26.988 27.956 26.676C28.004 26.34 28.076 25.908 28.172 25.38C28.268 24.828 28.388 24.168 28.532 23.4C28.7 22.632 28.904 21.708 29.144 20.628C29.192 20.388 29.3 20.004 29.468 19.476C29.636 18.948 29.852 18.396 30.116 17.82C30.404 17.22 30.74 16.644 31.124 16.092C31.532 15.54 32.012 15.132 32.564 14.868C32.972 14.964 33.512 15.216 34.184 15.624C34.856 16.008 35.432 16.548 35.912 17.244C35.36 17.868 34.892 18.492 34.508 19.116C34.148 19.74 33.812 20.388 33.5 21.06C33.212 21.732 32.936 22.428 32.672 23.148C32.432 23.868 32.156 24.624 31.844 25.416C31.58 26.088 31.34 26.784 31.124 27.504C30.908 28.2 30.788 28.812 30.764 29.34C30.764 29.772 30.752 30.072 30.728 30.24C30.728 30.432 30.668 30.528 30.548 30.528C30.452 30.528 30.26 30.468 29.972 30.348C29.684 30.228 29.384 30.048 29.072 29.808C28.784 29.544 28.52 29.22 28.28 28.836C28.04 28.452 27.92 27.996 27.92 27.468ZM34.796 11.844C34.796 11.7 34.832 11.484 34.904 11.196C34.784 11.076 34.676 10.896 34.58 10.656C34.508 10.416 34.472 10.2 34.472 10.008C34.472 9.792 34.496 9.504 34.544 9.144C34.616 8.76 34.7 8.352 34.796 7.92C34.892 7.488 35.012 7.044 35.156 6.588C35.3 6.108 35.444 5.676 35.588 5.292C35.876 5.292 36.224 5.376 36.632 5.544C37.064 5.688 37.496 5.892 37.928 6.156C38.36 6.396 38.756 6.672 39.116 6.984C39.476 7.272 39.752 7.548 39.944 7.812C39.68 8.076 39.332 8.448 38.9 8.928C38.468 9.384 38.048 9.876 37.64 10.404C37.232 10.908 36.86 11.388 36.524 11.844C36.188 12.3 35.972 12.624 35.876 12.816C35.588 12.768 35.336 12.648 35.12 12.456C34.904 12.24 34.796 12.036 34.796 11.844Z" fill="#40E0D0"/>
<path d="M33.7638 41.796C33.4278 41.7 33.2358 41.34 33.1878 40.716C33.0918 40.404 33.0198 40.032 32.9718 39.6C32.9478 39.168 32.9358 38.676 32.9358 38.124C32.9358 37.62 33.0198 36.924 33.1878 36.036C33.3558 35.172 33.5838 34.188 33.8718 33.084C34.1838 31.98 34.5558 30.792 34.9878 29.52C35.4198 28.224 35.8998 26.916 36.4278 25.596C37.0758 23.94 37.6398 22.512 38.1198 21.312C38.5998 20.088 38.9958 19.032 39.3078 18.144C39.6438 17.256 39.9078 16.524 40.0998 15.948C40.3158 15.372 40.4838 14.88 40.6038 14.472C40.6998 14.184 40.8438 13.836 41.0358 13.428C41.2278 13.02 41.4438 12.612 41.6838 12.204C41.9478 11.772 42.2118 11.376 42.4758 11.016C42.7398 10.632 42.9798 10.344 43.1958 10.152C44.0358 10.272 44.8278 10.488 45.5718 10.8C46.3158 11.112 46.7718 11.412 46.9398 11.7C46.6038 12.012 46.2198 12.504 45.7878 13.176C45.3558 13.824 44.9358 14.544 44.5278 15.336C44.1198 16.104 43.7478 16.896 43.4118 17.712C43.0758 18.528 42.8238 19.248 42.6558 19.872C42.8958 19.464 43.2078 19.02 43.5918 18.54C43.9758 18.06 44.5638 17.4 45.3558 16.56C46.2438 15.648 47.0718 14.952 47.8398 14.472C48.6318 13.968 49.3158 13.716 49.8918 13.716C50.8038 13.716 51.5478 13.968 52.1238 14.472C52.7238 14.976 53.0238 15.624 53.0238 16.416C53.0238 18.144 52.7358 19.86 52.1598 21.564C51.5838 23.244 50.7558 24.768 49.6758 26.136C49.2678 26.664 48.7878 27.168 48.2358 27.648C47.6838 28.128 47.1078 28.56 46.5078 28.944C45.9078 29.304 45.3198 29.592 44.7438 29.808C44.1678 30.024 43.6518 30.132 43.1958 30.132C42.7638 30.132 42.3798 30.048 42.0438 29.88C41.7318 29.688 41.5158 29.46 41.3958 29.196C42.3318 28.644 43.2438 27.876 44.1318 26.892C45.0198 25.908 45.8358 24.78 46.5798 23.508C47.3478 22.212 48.0078 20.82 48.5598 19.332C49.1358 17.844 49.5678 16.332 49.8558 14.796C48.9438 15.276 48.1158 15.804 47.3718 16.38C46.6518 16.932 45.9318 17.664 45.2118 18.576C44.3478 19.632 43.6638 20.484 43.1598 21.132C42.6558 21.78 42.2358 22.332 41.8998 22.788C41.5878 23.244 41.3238 23.676 41.1078 24.084C40.9158 24.468 40.6998 24.948 40.4598 25.524C40.1238 26.292 39.7278 27.312 39.2718 28.584C38.8398 29.832 38.3838 31.236 37.9038 32.796C37.4478 34.356 36.9798 36.012 36.4998 37.764C36.0438 39.54 35.5998 41.304 35.1678 43.056C34.9038 43.008 34.6758 42.816 34.4838 42.48C34.2918 42.264 34.1478 42.108 34.0518 42.012C33.9798 41.916 33.8838 41.844 33.7638 41.796Z" fill="#40E0D0"/>
<path d="M57.4563 30.996C57.3363 30.012 57.2403 28.944 57.1683 27.792C57.1203 26.616 57.0963 25.524 57.0963 24.516C57.0963 22.908 57.1443 21.372 57.2403 19.908C57.3603 18.42 57.4923 16.872 57.6363 15.264C57.8043 13.632 57.9843 11.868 58.1763 9.972C58.3683 8.052 58.5363 5.844 58.6803 3.348C58.9923 3.348 59.4363 3.444 60.0123 3.636C60.6123 3.804 61.2123 4.008 61.8123 4.248C62.4123 4.488 62.9403 4.74 63.3963 5.004C63.8523 5.244 64.1163 5.448 64.1883 5.616C63.7803 6.552 63.4083 7.788 63.0723 9.324C62.7603 10.836 62.4963 12.492 62.2803 14.292C62.0643 16.092 61.8963 17.94 61.7763 19.836C61.6563 21.732 61.5963 23.508 61.5963 25.164C61.5963 25.932 61.6083 26.688 61.6323 27.432C61.6563 28.176 61.6923 28.86 61.7403 29.484C62.2443 28.74 62.8203 27.684 63.4683 26.316C64.1403 24.924 64.8243 23.376 65.5203 21.672C66.2403 19.968 66.9483 18.192 67.6443 16.344C68.3643 14.472 69.0243 12.696 69.6243 11.016C70.2243 9.312 70.7283 7.788 71.1363 6.444C71.5683 5.076 71.8683 4.044 72.0363 3.348C72.3483 3.348 72.8043 3.444 73.4043 3.636C74.0283 3.804 74.6283 4.008 75.2043 4.248C75.8043 4.488 76.3323 4.74 76.7883 5.004C77.2443 5.244 77.4963 5.448 77.5443 5.616C77.1363 6.552 76.7643 7.788 76.4283 9.324C76.1163 10.836 75.8523 12.492 75.6363 14.292C75.4203 16.092 75.2523 17.94 75.1323 19.836C75.0123 21.732 74.9523 23.508 74.9523 25.164C74.9523 25.86 74.9523 26.556 74.9523 27.252C74.9763 27.924 75.0123 28.536 75.0603 29.088C75.8283 27.096 76.6203 25.128 77.4363 23.184C78.2763 21.216 79.1043 19.344 79.9203 17.568C80.7363 15.768 81.5283 14.1 82.2963 12.564C83.0643 11.004 83.7723 9.624 84.4203 8.424C85.0683 7.2 85.6323 6.192 86.1123 5.4C86.5923 4.608 86.9643 4.08 87.2283 3.816C87.7803 3.888 88.3443 4.092 88.9203 4.428C89.5203 4.74 90.0483 5.148 90.5043 5.652C89.8083 6.204 89.0163 7.116 88.1283 8.388C87.2403 9.636 86.3283 11.088 85.3923 12.744C84.4563 14.4 83.5083 16.164 82.5483 18.036C81.6123 19.908 80.7363 21.732 79.9203 23.508C79.1043 25.284 78.3723 26.94 77.7243 28.476C77.1003 30.012 76.6203 31.248 76.2843 32.184C75.6603 32.472 75.0483 32.616 74.4483 32.616C73.6803 32.52 72.9483 32.328 72.2523 32.04C71.5803 31.752 71.1003 31.404 70.8123 30.996C70.7403 30.612 70.6803 30.168 70.6323 29.664C70.5843 29.136 70.5483 28.62 70.5243 28.116C70.5003 27.612 70.4763 27.132 70.4523 26.676C70.4523 26.196 70.4523 25.788 70.4523 25.452C70.4523 23.316 70.5363 21.144 70.7043 18.936C70.8723 16.704 71.0763 14.316 71.3163 11.772C70.7643 13.404 70.1523 15.156 69.4803 17.028C68.8083 18.9 68.1003 20.76 67.3563 22.608C66.6363 24.432 65.8923 26.184 65.1243 27.864C64.3803 29.52 63.6483 30.96 62.9283 32.184C62.3043 32.472 61.6923 32.616 61.0923 32.616C60.3243 32.52 59.5923 32.328 58.8963 32.04C58.2243 31.752 57.7443 31.404 57.4563 30.996Z" fill="#40E0D0"/>
<path d="M85.9261 29.268C85.9261 28.428 86.0101 27.444 86.1781 26.316C86.3461 25.164 86.5861 23.94 86.8981 22.644C87.2341 21.348 87.6181 19.992 88.0501 18.576C88.5061 17.16 89.0101 15.744 89.5621 14.328C90.0421 13.056 90.5941 11.772 91.2181 10.476C91.8661 9.18 92.5621 7.908 93.3061 6.66C94.0501 5.412 94.8181 4.224 95.6101 3.096C96.4261 1.968 97.2421 0.936001 98.0581 0C98.4421 0 98.8501 0.0479999 99.2821 0.144C99.7381 0.24 100.17 0.372 100.578 0.539999C101.01 0.684 101.394 0.864001 101.73 1.08C102.09 1.296 102.378 1.512 102.594 1.728C100.794 3.576 99.1741 5.448 97.7341 7.344C96.2941 9.216 95.1541 10.98 94.3141 12.636C93.8581 13.548 93.4381 14.4 93.0541 15.192C92.6941 15.984 92.3581 16.776 92.0461 17.568C91.7341 18.336 91.4461 19.116 91.1821 19.908C90.9421 20.676 90.7141 21.492 90.4981 22.356C95.1061 16.476 98.5261 13.536 100.758 13.536C101.382 13.536 102.054 13.74 102.774 14.148C103.494 14.556 104.13 15.108 104.682 15.804C103.938 16.62 103.17 17.604 102.378 18.756C101.586 19.908 100.854 21.072 100.182 22.248C99.5341 23.4 98.9941 24.48 98.5621 25.488C98.1541 26.472 97.9501 27.204 97.9501 27.684C97.9501 27.924 97.9861 28.092 98.0581 28.188C98.1301 28.26 98.2861 28.296 98.5261 28.296C98.8861 28.296 99.1741 28.248 99.3901 28.152C99.6061 28.056 99.7381 28.008 99.7861 28.008C99.9061 28.2 99.9781 28.332 100.002 28.404C100.026 28.476 100.038 28.536 100.038 28.584C100.038 28.68 99.8941 28.824 99.6061 29.016C99.3181 29.184 98.9701 29.364 98.5621 29.556C98.1781 29.724 97.7941 29.88 97.4101 30.024C97.0261 30.168 96.7381 30.24 96.5461 30.24C96.3061 30.24 96.0661 30.168 95.8261 30.024C95.5861 29.904 95.3701 29.736 95.1781 29.52C95.0101 29.304 94.8661 29.064 94.7461 28.8C94.6501 28.536 94.6021 28.26 94.6021 27.972C94.6021 27.612 94.6981 27.084 94.8901 26.388C95.1061 25.668 95.3941 24.84 95.7541 23.904C96.1141 22.944 96.5461 21.9 97.0501 20.772C97.5541 19.644 98.0941 18.492 98.6701 17.316C98.6701 17.22 98.6221 17.172 98.5261 17.172C98.4541 17.172 98.2621 17.268 97.9501 17.46C97.6621 17.652 97.3861 17.844 97.1221 18.036C96.2581 18.684 95.3821 19.488 94.4941 20.448C93.6301 21.384 92.7781 22.416 91.9381 23.544C91.1221 24.672 90.3421 25.872 89.5981 27.144C88.8781 28.392 88.2541 29.652 87.7261 30.924C87.6541 31.092 87.5461 31.248 87.4021 31.392C87.2581 31.536 87.1381 31.608 87.0421 31.608C86.9701 31.608 86.8621 31.524 86.7181 31.356C86.5981 31.188 86.4781 30.972 86.3581 30.708C86.2621 30.468 86.1661 30.216 86.0701 29.952C85.9741 29.688 85.9261 29.46 85.9261 29.268Z" fill="#40E0D0"/>
<path d="M104.596 27.468C104.596 27.252 104.608 26.988 104.632 26.676C104.68 26.34 104.752 25.908 104.848 25.38C104.944 24.828 105.064 24.168 105.208 23.4C105.376 22.632 105.58 21.708 105.82 20.628C105.868 20.388 105.976 20.004 106.144 19.476C106.312 18.948 106.528 18.396 106.792 17.82C107.08 17.22 107.416 16.644 107.8 16.092C108.208 15.54 108.688 15.132 109.24 14.868C109.648 14.964 110.188 15.216 110.86 15.624C111.532 16.008 112.108 16.548 112.588 17.244C112.036 17.868 111.568 18.492 111.184 19.116C110.824 19.74 110.488 20.388 110.176 21.06C109.888 21.732 109.612 22.428 109.348 23.148C109.108 23.868 108.832 24.624 108.52 25.416C108.256 26.088 108.016 26.784 107.8 27.504C107.584 28.2 107.464 28.812 107.44 29.34C107.44 29.772 107.428 30.072 107.404 30.24C107.404 30.432 107.344 30.528 107.224 30.528C107.128 30.528 106.936 30.468 106.648 30.348C106.36 30.228 106.06 30.048 105.748 29.808C105.46 29.544 105.196 29.22 104.956 28.836C104.716 28.452 104.596 27.996 104.596 27.468ZM111.472 11.844C111.472 11.7 111.508 11.484 111.58 11.196C111.46 11.076 111.352 10.896 111.256 10.656C111.184 10.416 111.148 10.2 111.148 10.008C111.148 9.792 111.172 9.504 111.22 9.144C111.292 8.76 111.376 8.352 111.472 7.92C111.568 7.488 111.688 7.044 111.832 6.588C111.976 6.108 112.12 5.676 112.264 5.292C112.552 5.292 112.9 5.376 113.308 5.544C113.74 5.688 114.172 5.892 114.604 6.156C115.036 6.396 115.432 6.672 115.792 6.984C116.152 7.272 116.428 7.548 116.62 7.812C116.356 8.076 116.008 8.448 115.576 8.928C115.144 9.384 114.724 9.876 114.316 10.404C113.908 10.908 113.536 11.388 113.2 11.844C112.864 12.3 112.648 12.624 112.552 12.816C112.264 12.768 112.012 12.648 111.796 12.456C111.58 12.24 111.472 12.036 111.472 11.844Z" fill="#40E0D0"/>
<path d="M111.772 29.376C111.772 28.992 112.108 28.38 112.78 27.54C113.452 26.676 114.34 25.704 115.444 24.624C116.572 23.52 117.856 22.368 119.296 21.168C120.76 19.944 122.272 18.768 123.832 17.64C122.824 17.424 122.02 17.268 121.42 17.172C120.844 17.076 120.376 17.028 120.016 17.028C119.32 17.028 118.696 17.124 118.144 17.316C117.592 17.508 117.052 17.82 116.524 18.252C115.42 17.292 114.868 16.188 114.868 14.94C114.868 14.556 114.88 14.328 114.904 14.256C115.312 13.848 115.792 13.536 116.344 13.32C116.92 13.104 117.52 12.996 118.144 12.996C118.816 12.996 119.5 13.104 120.196 13.32C120.892 13.536 121.576 13.776 122.248 14.04C122.92 14.28 123.544 14.508 124.12 14.724C124.72 14.94 125.248 15.048 125.704 15.048C125.968 15.048 126.256 15.012 126.568 14.94C126.904 14.868 127.18 14.772 127.396 14.652C127.612 14.82 127.804 15.156 127.972 15.66C128.164 16.164 128.26 16.656 128.26 17.136C127.516 17.424 126.616 17.928 125.56 18.648C124.528 19.368 123.472 20.196 122.392 21.132C121.312 22.068 120.256 23.064 119.224 24.12C118.216 25.176 117.376 26.172 116.704 27.108C117.208 27.324 117.892 27.432 118.756 27.432C119.308 27.432 119.872 27.384 120.448 27.288C121.024 27.192 121.576 27.06 122.104 26.892C122.656 26.724 123.16 26.532 123.616 26.316C124.072 26.076 124.456 25.824 124.768 25.56C125.896 26.28 126.46 27.336 126.46 28.728C126.46 28.92 126.448 29.076 126.424 29.196C126.424 29.316 126.412 29.46 126.388 29.628C125.284 30.324 124.084 30.672 122.788 30.672C122.14 30.672 121.492 30.6 120.844 30.456C120.196 30.336 119.56 30.204 118.936 30.06C118.336 29.916 117.76 29.784 117.208 29.664C116.68 29.52 116.188 29.448 115.732 29.448C114.58 29.448 113.644 29.988 112.924 31.068C112.612 30.948 112.348 30.732 112.132 30.42C111.94 30.108 111.82 29.76 111.772 29.376Z" fill="#40E0D0"/>
</svg>
